<svg version="1.2" xmlns="http://www.w3.org/2000/svg" viewBox="0 0 2014 606" width="2014" height="606">
	<title>icon-green-svg</title>
	<style>
		tspan { white-space:pre } 
		.s0 { fill: #00dc82 } 
		.t1 { font-size: 600px;fill: #ffffff;font-weight: 475;font-family: "Campton-Book", "Campton" } 
	</style>
	<path id="Layer" fill-rule="evenodd" class="s0" d="m558.9 505.5h219.7l-164.8-282.8-54.9 94.1-102.5 176c-42.2 70.7-103.5 106.9-186.7 106.9h-210c-10.6 0-21.1-2.8-30.3-8.1-9.2-5.2-16.8-12.8-22.1-21.9-5.3-9.1-8.1-19.5-8.1-30 0-10.6 2.8-20.9 8.1-30l279.6-480c5.3-9.1 12.9-16.7 22.1-22 9.2-5.2 19.7-8 30.3-8 10.6 0 21 2.8 30.2 8 9.3 5.3 16.9 12.9 22.2 22l112.3 193 57.5-98.7c5.3-9.1 12.9-16.7 22.1-22 9.2-5.2 19.6-8 30.3-8 10.6 0 21 2.8 30.2 8 9.2 5.3 16.8 12.9 22.2 22l224.6 385.7c5.3 9.1 8.1 19.4 8.1 30 0 10.5-2.8 20.9-8.1 30-5.3 9.1-12.9 16.7-22.1 21.9-9.2 5.3-19.7 8.1-30.3 8.1h-334.5zm-183.3-62.7l73.4-126-109.6-188.6-219.7 377.1 146.5 0.1c49.5 0 81.3-16.7 109.4-62.6z"/>
	<text id="Mdi" style="transform: matrix(1,0,0,1,1018.003,161.695)" >
		<tspan x="0" y="426" class="t1">M</tspan><tspan  y="426" class="t1">d</tspan><tspan  y="426" class="t1">i
</tspan>
	</text>
</svg>